<svg width="624" height="275" viewBox="0 0 624 275" fill="none" xmlns="http://www.w3.org/2000/svg">
<g clip-path="url(#clip0_158_34)">
<path d="M501.726 221.114C495.286 225.948 488.306 230.528 480.84 234.818C448.851 253.193 407.785 266.387 361.875 271.999C427.773 267.33 486.705 253.565 531.85 233.717C540.896 229.739 549.38 225.524 557.25 221.09L501.726 221.114ZM143.162 234.818C135.776 230.575 128.867 226.05 122.489 221.274L67.12 221.296C74.8851 225.654 83.2455 229.801 92.1499 233.717C137.296 253.565 196.227 267.33 262.126 271.999C216.216 266.387 175.148 253.193 143.162 234.818ZM65.3791 220.252L121.109 220.229C108.892 210.899 98.682 200.634 90.862 189.657H92.4145C100.364 200.642 110.759 210.903 123.219 220.228L218.979 220.186C213.034 210.868 208.069 200.615 204.262 189.657H205.656C209.499 200.629 214.523 210.876 220.539 220.186L403.511 220.109C409.508 210.821 414.513 200.6 418.346 189.657H419.739C415.944 200.585 410.995 210.807 405.072 220.107L500.996 220.069C513.362 210.786 523.681 200.581 531.586 189.657H533.139C525.362 200.571 515.226 210.78 503.105 220.068L559.027 220.044V220.079C574.834 211 588.088 201.03 598.355 190.357C613.87 174.231 622.463 156.654 622.646 138.109L576.882 138.111V136.859L622.645 136.856C622.451 118.324 613.861 100.759 598.355 84.6425C587.967 73.845 574.527 63.77 558.476 54.605V54.6513L502.766 54.6737C515.036 64.03 525.291 74.3288 533.142 85.3425H531.587C523.608 74.3188 513.173 64.025 500.653 54.6737L404.957 54.7137C410.932 64.0613 415.92 74.3463 419.74 85.3425H418.346C414.488 74.3313 409.443 64.05 403.396 54.7137L220.555 54.7862C214.531 64.1037 209.503 74.3613 205.656 85.3425H204.262C208.072 74.3763 213.042 64.1162 218.995 54.7862L123.148 54.825C110.718 64.135 100.349 74.3788 92.4145 85.3425H90.8608C98.667 74.3888 108.853 64.14 121.037 54.825L65.1045 54.8475C49.2399 63.9462 35.9413 73.94 25.6453 84.6425C10.1289 100.769 1.53889 118.346 1.35544 136.89L47.1208 136.888V138.14L1.35668 138.142C1.54888 156.675 10.1376 174.241 25.6453 190.357C36.0024 201.122 49.3935 211.17 65.3791 220.31V220.252ZM122.359 53.825C128.774 49.0113 135.728 44.4537 143.162 40.1825C175.148 21.8075 216.216 8.6125 262.126 3.00125C196.227 7.67 137.296 21.435 92.1499 41.2825C83.1469 45.2413 74.7029 49.435 66.8655 53.8462L122.359 53.825ZM480.84 40.1825C488.198 44.4087 495.083 48.9162 501.443 53.675L556.79 53.6538C549.05 49.3138 540.721 45.1838 531.85 41.2825C486.705 21.435 427.773 7.67 361.875 3.00125C407.785 8.6125 448.851 21.8075 480.84 40.1825ZM404.4 221.154C401.304 225.918 397.954 230.432 394.372 234.671C377.35 254.802 354.95 268.772 329.989 273.361C388.51 270.852 441.058 256.195 480.133 233.75C487.062 229.769 493.56 225.55 499.587 221.115L404.4 221.154ZM229.631 234.671C226.067 230.456 222.733 225.968 219.652 221.231L124.627 221.273C130.595 225.65 137.021 229.816 143.868 233.75C182.942 256.195 235.49 270.852 294.013 273.361C269.05 268.772 246.652 254.802 229.631 234.671ZM219.639 53.785C222.723 49.0437 226.063 44.5488 229.631 40.3288C246.652 20.1975 269.05 6.2275 294.013 1.6375C235.49 4.1475 182.942 18.8037 143.868 41.25C136.972 45.2125 130.501 49.41 124.497 53.8237L219.639 53.785ZM394.372 40.3288C397.922 44.5263 401.243 48.9988 404.313 53.7125L499.304 53.675C493.354 49.3175 486.952 45.1675 480.133 41.25C441.058 18.8037 388.51 4.1475 329.989 1.6375C354.95 6.2275 377.35 20.1975 394.372 40.3288ZM393.314 41.105C372.447 16.4275 343.795 1.25375 312.001 1.25375C280.204 1.25375 251.552 16.4275 230.687 41.105C227.312 45.095 224.147 49.3312 221.209 53.785L402.745 53.7138C399.821 49.285 396.671 45.0737 393.314 41.105ZM230.687 233.895C251.552 258.571 280.204 273.746 312.001 273.746C343.795 273.746 372.447 258.571 393.314 233.895C396.706 229.885 399.883 225.631 402.83 221.155L221.222 221.231C224.155 225.68 227.317 229.909 230.687 233.895ZM623.995 137.5C623.995 156.526 615.179 174.749 599.356 191.196C583.552 207.625 560.644 222.444 532.424 234.85C476.016 259.65 398.041 275 312.001 275C225.962 275 147.985 259.65 91.5771 234.85C63.3561 222.444 40.4478 207.625 24.6444 191.196C8.82222 174.749 0.00634766 156.526 0.00634766 137.5C0.00634766 118.472 8.82222 100.25 24.6444 83.8037C40.4478 67.375 63.3561 52.5562 91.5771 40.15C147.985 15.3487 225.962 0 312.001 0C398.041 0 476.016 15.3487 532.424 40.15C560.644 52.5562 583.552 67.375 599.356 83.8037C615.179 100.25 623.995 118.472 623.995 137.5Z" fill="#7AFFFF" stroke="#7AFFFF" stroke-width="3" stroke-linecap="round" stroke-linejoin="round"/>
<path d="M68.6489 167.66V107.341C68.6489 106.439 69.2305 105.896 70.1989 105.896H82.3108C83.2805 105.896 83.766 106.439 83.766 107.341V156.734H147.141C148.109 156.734 148.691 157.275 148.691 158.179V167.66C148.691 168.562 148.109 169.105 147.141 169.105H70.1989C69.2305 169.105 68.6489 168.562 68.6489 167.66ZM155.225 152.58V107.341C155.225 106.439 155.806 105.896 156.775 105.896H168.888C169.857 105.896 170.343 106.439 170.343 107.341V151.587C170.343 155.469 172.28 156.734 175.964 156.734H221.991C225.675 156.734 227.613 155.469 227.613 151.587V107.341C227.613 106.439 228.096 105.896 229.066 105.896H241.177C242.147 105.896 242.73 106.439 242.73 107.341V152.58C242.73 162.875 237.496 169.105 225.481 169.105H172.475C160.458 169.105 155.225 162.875 155.225 152.58ZM255.94 167.66V107.341C255.94 106.439 256.523 105.896 257.493 105.896H275.031C276 105.896 276.582 106.349 277.164 107.251L307.106 152.851H308.462L338.404 107.251C338.986 106.349 339.567 105.896 340.537 105.896H358.172C359.142 105.896 359.628 106.439 359.628 107.341V167.66C359.628 168.562 359.142 169.105 358.172 169.105H346.061C345.092 169.105 344.511 168.562 344.511 167.66V124.679H343.444L315.341 167.66C314.762 168.562 314.084 169.105 313.017 169.105H302.55C301.583 169.105 300.904 168.562 300.323 167.66L272.124 124.679H271.057V167.66C271.057 168.562 270.575 169.105 269.604 169.105H257.493C256.523 169.105 255.94 168.562 255.94 167.66ZM458.1 121.88V153.121C458.1 163.236 451.606 169.466 441.821 169.466H386.684C377.09 169.466 370.5 163.236 370.5 153.121V121.88C370.5 111.766 377.09 105.535 386.684 105.535H441.917C451.512 105.535 458.1 111.766 458.1 121.88ZM414.495 158.179C422.828 158.179 429.805 151.587 429.805 143.822C429.805 140.841 428.835 138.132 427.188 135.785L416.722 118.449C415.27 115.92 413.621 115.92 412.168 118.449L401.701 135.785C400.055 138.132 399.183 140.841 399.183 143.822C399.183 151.587 405.968 158.179 414.495 158.179ZM469.656 167.66V107.341C469.656 106.439 470.237 105.896 471.206 105.896H485.354C486.226 105.896 486.613 106.257 487.487 106.98L539.135 152.49H540.394V107.341C540.394 106.439 540.977 105.896 541.944 105.896H554.057C555.027 105.896 555.609 106.439 555.609 107.341V167.66C555.609 168.562 555.027 169.105 554.057 169.105H539.91C538.943 169.105 538.555 168.744 537.681 168.021L486.13 122.512H484.772V167.66C484.772 168.562 484.288 169.105 483.318 169.105H471.206C470.237 169.105 469.656 168.562 469.656 167.66Z" fill="#7AFFFF"/>
</g>
<defs>
<clipPath id="clip0_158_34">
<rect width="624" height="275" fill="white"/>
</clipPath>
</defs>
</svg>
